<?xml version="1.0" encoding="UTF-8"?><svg xmlns="http://www.w3.org/2000/svg" xmlns:xlink="http://www.w3.org/1999/xlink" contentScriptType="text/ecmascript" width="375pt" zoomAndPan="magnify" contentStyleType="text/css" viewBox="0 0 375 374.999991" height="374.999991pt" preserveAspectRatio="xMidYMid meet" version="1.2"><g xml:id="surface1" id="surface1"><path style=" stroke:none;fill-rule:evenodd;fill:rgb(100%,56.858826%,30.198669%);fill-opacity:1;" d="M 353.875 89.304688 C 340.371094 58.367188 309.570312 52.480469 288.003906 79.863281 C 274.460938 97.050781 269.050781 127.433594 279.078125 152.777344 C 291.441406 183.953125 325.046875 189.980469 345.425781 162.421875 C 358.335938 144.917969 365.050781 114.828125 353.875 89.304688 Z M 62.003906 72.039062 C 34.679688 96.121094 55.605469 154.28125 105.71875 173.621094 C 150.855469 191.027344 180.199219 140.234375 136.046875 90.429688 C 119.382812 71.625 83.128906 53.390625 62.003906 72.039062 Z M 29.777344 249.089844 C 44.828125 270.066406 71.679688 282.355469 96.363281 280.558594 C 130.359375 278.050781 144.972656 248.21875 125.503906 220.324219 C 108.640625 196.164062 78.867188 187.53125 58.886719 188.992188 C 25.992188 191.421875 9.917969 221.390625 29.777344 249.089844 Z M 358.179688 237.808594 C 349.769531 210.703125 305.933594 190.949219 281.332031 183.242188 C 271.222656 180.101562 256.964844 176.84375 246.144531 175.8125 C 206.0625 172.003906 186.003906 181.644531 168.035156 219.8125 C 162.464844 231.644531 158.675781 242.09375 155.753906 253.828125 C 154.964844 257.007812 154.332031 259.378906 153.816406 262.660156 L 150.460938 280.359375 C 146.433594 302.289062 146.039062 351.339844 167.558594 362.640625 C 190.625 374.773438 221.070312 347.707031 239.984375 329.273438 C 248.515625 320.9375 262.101562 306.851562 273 301.085938 C 297.246094 288.144531 322.125 303.277344 348.308594 271.945312 C 355.929688 262.894531 361.890625 249.796875 358.179688 237.808594 Z M 182.371094 10.816406 C 175.617188 16.328125 172.300781 21.089844 169.222656 27.511719 C 165.507812 35.414062 165.351562 38.671875 163.773438 45.921875 C 162.191406 53.214844 161.953125 57.738281 162.308594 65.441406 C 164.597656 112.972656 202.472656 147.820312 232.046875 123.285156 C 251.476562 107.183594 254.832031 72.910156 247.492188 47.878906 C 243.027344 32.488281 234.296875 18.027344 221.664062 9.691406 C 211.59375 3.09375 195.992188 -0.167969 182.371094 10.816406 Z M 182.371094 10.816406 "/></g></svg>