<?xml version="1.0" encoding="UTF-8"?>
<svg xmlns="http://www.w3.org/2000/svg" xmlns:xlink="http://www.w3.org/1999/xlink" width="375pt" height="374.999991pt" viewBox="0 0 375 374.999991" version="1.2">
<defs>
<clipPath id="clip1">
  <path d="M 191 32 L 364 32 L 364 184 L 191 184 Z M 191 32 "/>
</clipPath>
<clipPath id="clip2">
  <path d="M 10.0625 32 L 184 32 L 184 184 L 10.0625 184 Z M 10.0625 32 "/>
</clipPath>
<clipPath id="clip3">
  <path d="M 10.0625 192 L 184 192 L 184 342 L 10.0625 342 Z M 10.0625 192 "/>
</clipPath>
<clipPath id="clip4">
  <path d="M 191 192 L 363 192 L 363 343.25 L 191 343.25 Z M 191 192 "/>
</clipPath>
</defs>
<g id="surface1">
<g clip-path="url(#clip1)" clip-rule="nonzero">
<path style=" stroke:none;fill-rule:nonzero;fill:rgb(94.509888%,39.608765%,28.62854%);fill-opacity:1;" d="M 266.03125 85.320312 C 282.832031 108.019531 236.226562 110.230469 248.71875 134.0625 C 260.566406 156.683594 277.675781 127.324219 290.910156 127.222656 C 308.890625 127.121094 341.539062 140.359375 360.519531 147.507812 C 360.445312 148.253906 360.367188 149 360.316406 149.742188 C 356.957031 186.273438 277.828125 183.910156 248.050781 182.546875 C 186.542969 179.71875 189.339844 125.679688 193.289062 71.152344 C 193.289062 23.335938 277.1875 32.023438 305.761719 33.59375 C 357.75 36.394531 366.214844 58.042969 363.417969 110.640625 C 343.183594 106.554688 314.582031 101.644531 306.863281 88.222656 C 297.195312 71.382812 299.527344 52.359375 272.878906 55.1875 C 253.078125 57.296875 257.566406 73.878906 266.03125 85.320312 Z M 266.03125 85.320312 "/>
</g>
<g clip-path="url(#clip2)" clip-rule="nonzero">
<path style=" stroke:none;fill-rule:nonzero;fill:rgb(13.328552%,61.569214%,59.609985%);fill-opacity:1;" d="M 179.644531 149.742188 C 176.824219 180.363281 120.910156 183.652344 85.308594 183.085938 C 93.3125 181.597656 100.980469 179.460938 108.035156 176.941406 C 154.816406 160.308594 155.714844 130.359375 133.398438 116.527344 C 107.777344 100.589844 109.265625 90.023438 101.699219 82.128906 C 100.132812 80.511719 98.363281 79.121094 96.492188 77.941406 C 97.261719 72.695312 99.390625 68.222656 105.597656 66.910156 C 119.394531 63.929688 134.863281 93.878906 145.917969 70.820312 C 156.226562 49.328125 125.679688 42.207031 111.367188 47.964844 C 102.699219 51.488281 87.515625 62.644531 86.875 74.085938 C 70.175781 70.226562 48.503906 76.859375 35.523438 83.261719 C 25.625 88.199219 17.132812 95.9375 10.925781 105.035156 C 11.082031 94.085938 11.800781 82.621094 12.671875 71.152344 C 12.671875 23.335938 96.570312 32.023438 125.140625 33.59375 C 188.519531 37.011719 187.132812 68.453125 179.644531 149.742188 Z M 97.953125 122.929688 C 97.285156 122.878906 96.570312 122.851562 95.851562 122.828125 C 69.484375 122.054688 45.730469 156.96875 82.5625 159.71875 C 112.523438 161.957031 132.886719 125.371094 97.953125 122.929688 Z M 97.953125 122.929688 "/>
</g>
<g clip-path="url(#clip3)" clip-rule="nonzero">
<path style=" stroke:none;fill-rule:nonzero;fill:rgb(39.99939%,5.488586%,7.058716%);fill-opacity:1;" d="M 125.117188 193.9375 C 96.570312 192.394531 12.644531 183.679688 12.644531 231.523438 C 9.773438 271.0625 7.542969 310.34375 29.984375 330.011719 C 27.265625 305.460938 75.5625 264.121094 100.339844 272.425781 C 118.910156 278.644531 127.117188 322.839844 125.039062 341.835938 C 152.328125 338.75 177.773438 330.472656 179.644531 310.085938 C 187.160156 228.796875 188.519531 197.355469 125.117188 193.9375 Z M 41.398438 285.765625 C 26.984375 276.664062 38.191406 238.875 55.09375 245.097656 C 70.765625 250.878906 58.144531 296.332031 41.398438 285.765625 Z M 77.613281 263.21875 C 60.582031 252.011719 74.894531 207.097656 94.925781 214.941406 C 113.546875 222.242188 97.363281 276.253906 77.613281 263.21875 Z M 119.089844 274.941406 C 102.828125 262.65625 120.011719 218.769531 139.480469 227.898438 C 157.585938 236.355469 137.992188 289.238281 119.089844 274.941406 Z M 129.988281 312.425781 C 118.730469 299.625 140.171875 266.535156 154.613281 277.308594 C 168.027344 287.285156 143.070312 327.3125 129.988281 312.425781 Z M 129.988281 312.425781 "/>
</g>
<g clip-path="url(#clip4)" clip-rule="nonzero">
<path style=" stroke:none;fill-rule:nonzero;fill:rgb(92.939758%,11.759949%,28.62854%);fill-opacity:1;" d="M 362.46875 234.246094 C 361.546875 233.527344 360.546875 232.9375 359.570312 232.371094 C 356.339844 230.597656 352.75 229.464844 348.644531 229.183594 C 344.105469 228.875 339.589844 229.003906 335.050781 229.492188 C 325.84375 219.902344 308.582031 205.273438 301.117188 203.140625 C 296.527344 217.972656 292.449219 230.800781 291.398438 245.636719 C 284.984375 249.542969 278.90625 253.863281 273.339844 258.363281 C 256.820312 271.652344 247.332031 294.714844 257.234375 314.792969 C 264.03125 328.546875 280.367188 337.234375 296.578125 342.683594 C 277.855469 344.074219 259.386719 343.40625 248.050781 342.890625 C 186.542969 340.0625 189.339844 286.023438 193.289062 231.496094 C 193.289062 183.679688 277.1875 192.367188 305.761719 193.9375 C 343.386719 195.96875 358.210938 207.84375 362.46875 234.246094 Z M 299.324219 282.347656 C 293.601562 290.726562 309.632812 316.257812 315.917969 321.242188 C 323.765625 327.441406 357.3125 312.476562 356.929688 305.097656 C 356.132812 289.003906 304.8125 274.300781 299.324219 282.347656 Z M 299.324219 282.347656 "/>
</g>
<path style=" stroke:none;fill-rule:nonzero;fill:rgb(100%,100%,100%);fill-opacity:1;" d="M 105.726562 134.832031 C 101.363281 137.273438 93.515625 136.015625 96.695312 130.898438 C 100.492188 124.832031 113.726562 130.308594 105.726562 134.832031 Z M 337.871094 297.722656 C 333.488281 299.828125 338.898438 304.636719 341.234375 305.792969 C 343.207031 306.769531 348.515625 308.261719 350.160156 305.972656 C 353.441406 301.449219 341.386719 296 337.871094 297.722656 Z M 337.871094 297.722656 "/>
</g>
</svg>
